<mxfile host="65bd71144e">
    <diagram id="koXbLAuU0xPHTZI7kgfI" name="Page-1">
        <mxGraphModel dx="741" dy="418" grid="1" gridSize="10" guides="1" tooltips="1" connect="1" arrows="1" fold="1" page="1" pageScale="1" pageWidth="827" pageHeight="1169" math="0" shadow="0">
            <root>
                <mxCell id="0"/>
                <mxCell id="1" parent="0"/>
                <mxCell id="2" value="Browser" style="swimlane;whiteSpace=wrap;html=1;" parent="1" vertex="1">
                    <mxGeometry x="340" y="110" width="200" height="460" as="geometry"/>
                </mxCell>
                <mxCell id="6" value="CustomThemeProvider.tsx" style="rounded=0;whiteSpace=wrap;html=1;align=left;verticalAlign=top;" parent="2" vertex="1">
                    <mxGeometry x="24" y="44" width="150" height="90" as="geometry"/>
                </mxCell>
                <mxCell id="7" value="MUIThemeProvider" style="rounded=0;whiteSpace=wrap;html=1;align=left;verticalAlign=top;" parent="2" vertex="1">
                    <mxGeometry x="45" y="74" width="110" height="50" as="geometry"/>
                </mxCell>
                <mxCell id="11" value="LightDarkSwitch.tsx" style="rounded=0;whiteSpace=wrap;html=1;align=left;verticalAlign=top;" parent="2" vertex="1">
                    <mxGeometry x="35" y="350" width="120" height="60" as="geometry"/>
                </mxCell>
                <mxCell id="3" value="Server" style="swimlane;whiteSpace=wrap;html=1;" parent="1" vertex="1">
                    <mxGeometry x="140" y="110" width="200" height="460" as="geometry"/>
                </mxCell>
                <mxCell id="4" value="main.ts&lt;br&gt;&lt;br&gt;sets cookie" style="rounded=0;whiteSpace=wrap;html=1;align=left;verticalAlign=top;" parent="3" vertex="1">
                    <mxGeometry x="35" y="350" width="80" height="60" as="geometry"/>
                </mxCell>
                <mxCell id="8" value="layout.tsx" style="rounded=0;whiteSpace=wrap;html=1;align=left;verticalAlign=top;" parent="3" vertex="1">
                    <mxGeometry x="30" y="44" width="80" height="30" as="geometry"/>
                </mxCell>
                <mxCell id="9" style="edgeStyle=none;html=1;" parent="1" source="8" edge="1">
                    <mxGeometry relative="1" as="geometry">
                        <mxPoint x="360" y="170" as="targetPoint"/>
                    </mxGeometry>
                </mxCell>
                <mxCell id="12" style="edgeStyle=none;html=1;entryX=1;entryY=0.5;entryDx=0;entryDy=0;" parent="1" source="11" target="4" edge="1">
                    <mxGeometry relative="1" as="geometry"/>
                </mxCell>
                <mxCell id="16" value="Concern: switching" style="swimlane;horizontal=0;whiteSpace=wrap;html=1;" vertex="1" parent="1">
                    <mxGeometry x="90" y="420" width="440" height="130" as="geometry"/>
                </mxCell>
                <mxCell id="17" value="Concern: app stuff" style="swimlane;horizontal=0;whiteSpace=wrap;html=1;" vertex="1" parent="1">
                    <mxGeometry x="90" y="280" width="440" height="120" as="geometry"/>
                </mxCell>
                <mxCell id="13" value="page.tsx" style="rounded=0;whiteSpace=wrap;html=1;align=left;verticalAlign=top;" parent="17" vertex="1">
                    <mxGeometry x="80" y="40" width="80" height="30" as="geometry"/>
                </mxCell>
                <mxCell id="10" value="Dashboard.tsx" style="rounded=0;whiteSpace=wrap;html=1;align=left;verticalAlign=top;" parent="17" vertex="1">
                    <mxGeometry x="274" y="40" width="80" height="60" as="geometry"/>
                </mxCell>
                <mxCell id="14" style="edgeStyle=none;html=1;entryX=0;entryY=0.25;entryDx=0;entryDy=0;" parent="17" source="13" target="10" edge="1">
                    <mxGeometry relative="1" as="geometry"/>
                </mxCell>
                <mxCell id="18" value="Concern: loading" style="swimlane;horizontal=0;whiteSpace=wrap;html=1;" vertex="1" parent="1">
                    <mxGeometry x="90" y="140" width="440" height="120" as="geometry"/>
                </mxCell>
            </root>
        </mxGraphModel>
    </diagram>
</mxfile>